<svg width="126" height="126" xmlns="http://www.w3.org/2000/svg" xml:space="preserve" fill-rule="evenodd" stroke-linejoin="round" stroke-linecap="round">
  <defs>
    <clipPath id="a">
      <path d="M0 200h200V0H0z"/>
    </clipPath>
  </defs>
  <g stroke-width=".1" stroke="#000" fill="none" clip-path="url(#a)"/>
  <g stroke="#000" clip-path="url(#a)">
    <path d="M124.81.955H.954V124.81H124.81zM73.703 52.81V27.08h-9.196v-5.234h24.616v5.233H79.96v25.73zM35.99 104.415V73.451h22.913v5.233H42.245v6.874h15.513v5.233H42.245v8.391h17.246v5.233zm28.89 0V73.451h6.064l12.668 20.71v-20.71h5.79v30.964h-6.254L70.67 84.132v20.283zM42.337 42.188l.246 1.16.207.653.192.46.187.387.188.373.2.356.22.325.245.29.266.26.278.242.282.238.295.222.317.195.34.165.364.137.376.122.38.118.392.102.414.075.44.045.461.017.482.003.493-.002.484-.016.458-.04.426-.067.397-.09.382-.105.378-.109.36-.122.334-.147.302-.173.273-.198.258-.21.253-.215.237-.218.207-.227.176-.236.146-.244.13-.249.126-.25.108-.255.08-.263.048-.272.02-.276.001-.254v-.213l-.008-.184-.02-.173-.034-.166-.046-.16-.053-.156-.054-.156-.062-.152-.074-.146-.087-.139-.1-.132-.106-.13-.109-.128-.119-.126-.137-.122-.158-.119-.175-.114-.186-.112-.19-.112-.198-.11-.218-.105-.237-.1-.253-.098-.24-.086-.213-.074-.22-.072-.272-.08-.33-.095-.382-.106-.412-.112-.422-.113-.452-.12-.504-.13-.564-.145-.625-.157-.7-.174-.778-.195-.794-.213-.744-.226-.682-.237-.624-.249-.593-.254-.583-.257-.55-.262-.495-.273-.432-.285-.38-.3-.383-.339-.43-.392-.435-.435-.386-.46-.327-.486-.272-.506-.243-.518-.233-.52-.202-.534-.149-.555-.089-.578-.035-.59-.005-.547.003-.458.016-.4.042-.385.07-.378.095-.373.11-.37.114-.368.128-.365.153-.36.182-.353.207-.347.221-.344.225-.342.238-.33.26-.314.286-.292.307-.274.32-.263.324-.26.337-.25.36-.23.382-.21.406-.192.42-.182.421-.178.433-.166.453-.146.475-.124.495-.102.506-.092.51-.088.52-.077.54-.056.562-.034.598-.013.702-.002.857.005.92.03.881.08.821.134.766.182.736.208.726.218.697.244.64.293.581.346.526.395.496.422.486.43.457.446.404.48.345.515.292.548.262.566.256.585.244.683.214.944.133 1.628-6.254.28-.183-.904-.156-.504-.148-.353-.144-.297-.145-.284-.154-.27-.172-.245-.19-.217-.21-.19-.218-.178-.222-.173-.236-.162-.26-.142-.289-.12-.314-.1-.328-.09-.332-.085-.345-.075-.37-.054-.4-.033-.424-.013-.44-.002-.449.002-.438.014-.417.035-.392.058-.37.08-.357.092-.353.095-.34.107-.319.13-.294.151-.267.17-.232.166-.19.14-.158.13-.134.134-.114.145-.094.155-.085.16-.08.16-.07.167-.053.176-.03.186-.013.194-.002.195.002.188.011.18.03.174.048.167.066.161.076.158.08.156.087.153.107.147.126.14.145.137.166.14.19.157.237.165.303.168.373.17.438.172.473.173.484.172.52.174.585.175.655.177.72.18.754.18.756.18.732.18.686.181.637.183.591.185.567.186.558.185.533.187.49.188.437.19.394.19.368.192.363.194.353.202.334.218.315.236.297.252.287.26.283.264.274.272.255.29.236.305.218.323.207.33.204.335.191.344.168.362.141.381.118.4.105.41.101.412.088.422.064.44.04.46.014.476.002.474-.002.456-.018.442-.047.433-.076.425-.106.42-.12.416-.126.415-.14.41-.17.406-.2.397-.229.392-.244.387-.249.385-.26.373-.285.35-.31.325-.334.302-.347.29-.35.286-.364.273-.386.25-.413.226-.435.203-.449.19-.453.186-.466.175-.492.153-.52.13-.545.107-.56.096-.563.093-.578.08-.603.06-.63.034-.67.014-.758.002-.885-.005-.933-.033-.893-.085-.837-.14-.784-.194-.756-.222-.747-.23-.719-.26-.666-.31-.61-.368-.557-.419-.53-.447-.52-.457-.493-.482-.445-.53-.393-.58-.344-.63-.317-.655-.313-.679-.313-.8-.312-1.124-.308-1.97z"/>
  </g>
  <g stroke="#FFF" fill="#FFF" clip-path="url(#a)">
    <path d="m42.584 43.348-.246-1.16-6.07.588.31 1.971.31 1.124.314.8.313.68.317.654.344.63.393.58.445.53.494.482.52.457.53.447.557.42.61.367.665.31.72.26.746.23.756.222.784.193.837.141.893.085.933.033.884.005.76-.002.67-.014.63-.035.602-.06.578-.08.564-.092.56-.096.544-.108.52-.13.492-.152.467-.175.452-.186.45-.19.434-.203.413-.226.386-.25.364-.273.35-.286.347-.29.333-.302.31-.325.285-.35.261-.373.25-.385.243-.387.228-.392.2-.397.17-.405.14-.41.127-.416.12-.416.105-.42.078-.425.046-.433.018-.442.002-.456-.002-.474-.015-.476-.039-.46-.064-.44-.088-.422-.1-.413-.106-.41-.118-.399-.142-.38-.167-.363-.19-.344-.205-.334-.207-.33-.218-.324-.236-.306-.255-.289-.274-.272-.283-.264-.287-.26-.297-.252-.315-.236-.334-.218-.353-.203-.363-.193-.368-.19-.394-.192-.438-.19-.489-.188-.533-.187-.558-.185-.567-.186-.59-.185-.638-.183-.686-.182-.732-.18-.756-.18-.755-.18-.72-.178-.654-.177-.585-.176-.52-.174-.484-.172-.473-.173-.438-.172-.373-.17-.303-.168-.236-.165-.19-.156-.167-.14-.145-.137-.126-.14-.106-.148-.09-.153-.078-.156-.076-.158-.066-.16-.049-.168-.029-.173-.01-.18-.003-.189.002-.195.012-.194.031-.186.052-.176.07-.166.081-.162.085-.16.094-.154.114-.145.134-.135.157-.129.19-.14.233-.166.267-.17.294-.152.318-.129.34-.107.354-.095.357-.092.37-.08.392-.058.417-.035.438-.014.448-.002.441.002.424.013.4.033.37.054.345.075.333.085.327.09.313.1.29.12.26.142.236.162.222.173.218.177.21.19.19.218.172.244.154.27.145.285.144.297.147.353.157.504.183.903 6.254-.279-.133-1.628-.214-.944-.244-.683-.256-.585-.262-.566-.292-.548-.345-.515-.404-.48-.457-.447-.486-.429-.496-.422-.526-.395-.58-.346-.64-.293-.698-.244-.726-.218-.736-.208-.766-.182-.82-.133-.882-.08-.92-.03-.857-.006-.702.002-.598.013-.562.034-.54.056-.52.077-.51.088-.506.091-.495.103-.475.124-.453.146-.433.166-.422.178-.419.182-.406.191-.383.21-.36.231-.336.25-.324.26-.32.263-.307.274-.285.292-.26.313-.239.331-.225.342-.22.344-.208.347-.182.353-.153.36-.128.365-.114.368-.11.37-.095.373-.07.378-.042.385-.016.4-.003.458.005.547.035.59.09.578.148.555.203.533.232.521.243.518.272.506.327.485.386.46.434.436.43.392.384.338.38.3.432.286.494.273.551.262.583.257.593.254.624.25.682.236.744.226.794.213.778.195.7.174.625.157.564.144.504.13.451.12.423.114.412.112.383.106.33.094.27.082.221.071.212.074.241.086.253.097.237.101.218.106.2.11.188.11.186.113.175.114.158.12.137.121.12.126.108.13.107.128.1.132.086.14.074.145.062.152.054.156.053.156.046.16.033.166.02.173.008.184.001.213-.002.254-.019.276-.048.272-.08.263-.109.255-.124.25-.13.25-.147.243-.176.236-.207.227-.237.218-.253.214-.258.211-.273.198-.302.173-.333.147-.36.122-.378.11-.383.103-.397.091-.426.067-.457.04-.485.016-.493.002-.482-.003-.462-.017-.439-.045-.414-.075-.392-.102-.38-.118-.376-.122-.363-.138-.34-.164-.318-.195-.294-.222-.283-.238-.278-.242-.266-.26-.245-.29-.22-.325-.2-.356-.188-.373-.187-.387-.192-.46zm31.12-16.27v25.73h6.255v-25.73h9.165v-5.233H64.508v5.233zM64.88 73.451v30.964h5.79V84.132l12.48 20.283h6.253V73.451h-5.79v20.71l-12.668-20.71zm-28.889 0v30.964h23.501v-5.233H42.246v-8.39H57.76v-5.234H42.245v-6.874h16.657v-5.233z"/>
  </g>
</svg>
