<svg width="227" height="93" xmlns="http://www.w3.org/2000/svg" xml:space="preserve" fill-rule="evenodd" stroke-linejoin="round" stroke-linecap="round">
  <defs>
    <clipPath id="a">
      <path d="M-134.838 150.48h500v-200h-500z"/>
    </clipPath>
  </defs>
  <g stroke-width=".1" stroke="#000" fill="none" clip-path="url(#a)"/>
  <g stroke="#000" clip-path="url(#a)">
    <path d="M91.478 1H1v90.477h90.478zM54.144 38.88V20.083h-6.717V16.26h17.982v3.823h-6.695V38.88zm-27.55 37.699v-22.62h16.738v3.823H31.163v5.022h11.333v3.822H31.163v6.13h12.599v3.823zm21.104 0v-22.62h4.43l9.255 15.13v-15.13h4.23v22.62h-4.57l-9.115-14.817v14.817zM31.231 31.121l.18.848.151.477.141.336.136.283.137.272.146.26.162.237.178.213.195.19.203.176.206.174.215.162.231.143.25.12.265.1.275.09.277.085.287.075.302.055.321.033.338.012.352.002.36-.001.353-.012.334-.029.312-.049.29-.066.279-.076.276-.08.264-.09.243-.106.221-.127.199-.144.189-.155.184-.156.173-.16.152-.165.128-.173.107-.178.095-.182.092-.182.079-.186.059-.192.035-.199.013-.202.002-.186-.001-.155-.005-.134-.015-.127-.025-.121-.033-.117-.039-.114-.04-.114-.044-.11-.054-.107-.064-.102-.073-.097-.077-.094-.08-.094-.087-.092-.1-.09-.115-.086-.129-.084-.136-.082-.138-.081-.145-.08-.159-.077-.174-.074-.184-.07-.176-.064-.155-.053-.162-.053-.197-.06-.241-.069-.28-.077-.301-.081-.308-.083-.33-.088-.369-.096-.411-.104-.457-.115-.511-.127-.569-.143-.58-.156-.543-.164-.498-.174-.456-.181-.433-.186-.426-.187-.403-.192-.361-.2-.315-.208-.278-.22-.28-.247-.314-.286-.318-.318-.282-.337-.238-.354-.199-.37-.177-.378-.17-.38-.149-.39-.108-.405-.065-.422-.025-.431-.004-.4.002-.335.012-.292.03-.28.051-.278.07-.272.08-.27.083-.269.094-.267.112-.262.133-.258.151-.254.161-.251.165-.25.174-.242.19-.228.208-.214.225-.2.234-.192.236-.19.246-.182.262-.169.28-.154.297-.14.306-.132.308-.13.317-.122.331-.106.347-.09.361-.076.37-.067.372-.064.38-.056.395-.04.41-.025.437-.01.513-.001.626.003.672.023.644.058.6.097.559.133.538.153.53.158.509.179.468.214.424.253.385.288.362.308.355.314.334.326.294.35.253.377.213.4.192.414.186.427.179.5.156.689.097 1.19-4.569.203-.133-.66-.115-.368-.107-.258-.105-.217-.106-.207-.113-.198-.126-.179-.139-.158-.153-.14-.159-.13-.162-.125-.173-.119-.19-.103-.211-.088-.229-.073-.239-.066-.243-.062-.252-.055-.271-.04-.291-.023-.31-.01-.323-.001-.327.001-.32.01-.304.026-.287.043-.27.058-.261.067-.258.07-.249.078-.232.094-.215.11-.195.125-.17.121-.139.103-.114.094-.098.098-.084.107-.069.112-.061.117-.059.118-.052.122-.038.128-.022.136-.009.142-.001.142.001.138.008.131.021.127.036.122.048.118.055.115.058.114.065.112.078.107.092.103.106.1.121.102.139.114.173.12.221.124.273.124.319.126.346.126.354.126.38.127.427.128.478.13.526.13.551.13.552.132.535.132.501.133.465.134.432.135.414.135.408.136.39.136.356.138.321.138.287.14.269.14.265.141.258.148.245.16.23.171.216.184.21.19.207.193.2.2.187.21.172.224.159.235.151.242.149.244.14.252.122.264.104.279.086.292.077.299.073.301.064.309.047.321.029.336.011.348.001.346-.002.333-.013.323-.034.316-.056.311-.077.307-.088.303-.092.303-.103.3-.123.296-.147.291-.167.286-.178.283-.181.281-.191.273-.208.255-.227.238-.243.22-.253.212-.256.209-.266.2-.282.182-.302.165-.318.148-.327.14-.331.135-.341.128-.36.112-.379.094-.399.08-.408.07-.412.067-.422.058-.44.043-.461.026-.489.01-.554.002-.646-.004-.682-.024-.652-.062-.611-.103-.574-.141-.552-.162-.545-.169-.525-.189-.487-.227-.445-.268-.408-.307-.386-.326-.38-.334-.361-.352-.325-.387-.287-.425-.251-.46-.232-.478-.229-.496-.228-.584-.228-.82-.225-1.44z"/>
  </g>
  <g stroke="#FFF" fill="#FFF" clip-path="url(#a)">
    <path d="m31.411 31.969-.18-.848-4.433.43.225 1.44.228.82.228.585.229.496.232.479.251.46.287.424.325.387.361.352.38.334.386.327.408.306.445.268.487.227.525.19.545.168.552.162.574.14.611.104.652.062.682.024.646.004.554-.002.489-.01.461-.026.44-.043.422-.058.412-.068.408-.07.399-.079.379-.094.36-.112.341-.127.331-.137.327-.139.318-.148.302-.165.282-.182.266-.2.256-.209.253-.211.243-.221.227-.238.208-.255.191-.272.181-.282.178-.283.167-.286.147-.29.123-.296.103-.3.092-.303.088-.304.077-.307.056-.31.034-.317.013-.322.002-.334-.001-.346-.011-.348-.029-.336-.047-.321-.064-.309-.073-.301-.077-.3-.086-.291-.104-.279-.122-.264-.14-.251-.149-.245-.151-.241-.159-.236-.172-.224-.187-.21-.2-.2-.207-.192-.21-.19-.216-.185-.23-.172-.245-.16-.258-.147-.265-.141-.269-.14-.287-.14-.321-.138-.356-.137-.39-.137-.408-.136-.414-.135-.432-.135-.465-.134-.501-.133-.535-.132-.552-.131-.551-.131-.526-.13-.478-.13-.427-.128-.38-.127-.354-.126-.346-.126-.319-.126-.273-.124-.221-.123-.173-.12-.139-.114-.121-.104-.106-.1-.092-.102-.078-.107-.065-.112-.058-.114-.055-.115-.048-.118-.036-.122-.021-.127-.008-.131-.001-.138.001-.142.009-.142.022-.136.038-.128.052-.122.059-.118.061-.116.069-.113.084-.106.098-.1.114-.093.139-.103.17-.12.195-.125.215-.111.232-.094.249-.078.258-.07.261-.067.27-.058.287-.043.304-.026.32-.01.327-.001.323.001.31.01.291.024.271.04.252.054.243.063.239.065.229.073.211.088.19.103.173.119.162.126.159.13.153.139.139.158.126.179.113.198.106.207.105.217.107.258.115.368.133.66 4.569-.204-.097-1.19-.156-.689-.179-.499-.186-.427-.192-.413-.213-.4-.253-.377-.294-.35-.334-.327-.355-.313-.362-.309-.385-.288-.424-.253-.468-.214-.509-.178-.53-.16-.538-.152-.559-.133-.6-.097-.644-.058-.672-.023-.626-.003-.513.001-.437.01-.41.024-.395.041-.38.056-.372.065-.37.067-.361.075-.347.09-.331.107-.317.121-.308.13-.306.133-.297.14-.28.153-.262.169-.246.182-.236.19-.234.192-.225.2-.208.214-.19.228-.174.242-.165.25-.161.251-.151.254-.133.258-.112.262-.094.267-.083.27-.08.27-.07.272-.051.276-.03.281-.012.293-.002.334.004.4.025.43.065.423.108.405.149.39.17.38.177.379.199.37.238.353.282.337.318.318.314.286.28.247.278.22.315.208.361.2.403.192.426.187.433.186.456.181.498.174.543.165.58.155.569.143.511.127.457.115.411.104.369.096.33.088.308.083.301.081.28.078.241.068.197.06.162.053.155.053.176.063.184.07.174.075.159.077.145.08.138.082.136.082.129.083.115.086.1.09.087.092.08.094.077.094.073.097.064.102.054.106.044.111.04.114.039.114.033.117.025.121.015.127.005.134.001.155-.002.186-.013.202-.035.199-.059.192-.079.186-.092.183-.095.181-.107.179-.128.172-.152.166-.173.16-.184.156-.189.154-.199.144-.221.127-.243.107-.264.09-.276.079-.279.076-.29.067-.312.048-.334.03-.353.01-.36.002-.352-.001-.338-.013-.321-.033-.302-.055-.287-.075-.277-.085-.275-.09-.265-.1-.25-.12-.231-.143-.215-.162-.206-.174-.203-.177-.195-.19-.178-.212-.162-.237-.146-.26-.137-.272-.136-.283-.141-.336zm22.733-11.886V38.88h4.57V20.083h6.695v-3.822H47.427v3.822zm-6.446 33.876v22.62h4.23V61.762l9.115 14.817h4.57v-22.62h-4.23v15.13l-9.255-15.13zm-21.104 0v22.62h17.168v-3.823H31.163v-6.13h11.333v-3.822H31.163v-5.022h12.169v-3.823z"/>
  </g>
  <g stroke="#000" clip-path="url(#a)">
    <path d="m99.331 78.79-.083-.47-2.692-.407.026 1.006.103.57.133.403.143.342.148.329.168.315.203.289.242.262.278.236.297.222.303.217.314.204.335.179.359.151.381.126.392.112.396.108.408.094.429.069.453.041.471.016.463.002.432-.001.405-.012.386-.029.371-.048.355-.066.348-.075.344-.079.337-.088.321-.106.306-.126.291-.143.282-.152.28-.156.27-.162.253-.175.233-.189.217-.202.207-.209.204-.212.194-.218.177-.231.158-.245.141-.258.131-.265.128-.27.121-.293.105-.336.089-.382.074-.424.067-.448.064-.467.06-.559.049-.801.021-1.441V60.18h-2.556v1.99l-.766-.859-.528-.431-.438-.268-.404-.206-.4-.192-.411-.167-.43-.123-.451-.073-.466-.029-.446-.004-.397.002-.361.013-.345.034-.333.056-.322.077-.317.088-.314.092-.309.103-.298.124-.286.146-.275.167-.27.178-.267.182-.26.191-.244.208-.229.227-.214.245-.207.253-.203.257-.196.266-.181.284-.165.302-.151.32-.143.329-.14.331-.131.335-.115.342-.097.349-.081.356-.072.361-.069.361-.061.365-.044.372-.026.38-.011.394-.001.442.003.515.023.549.057.538.097.518.131.5.151.489.158.485.176.476.212.457.25.437.286.418.305.408.311.402.327.377.356.33.387.28.417.233.433.207.438.199.454.174.483.127.514.076.54.03.527.004.483-.004.446-.026.424-.067.405-.112.389-.153.379-.175.376-.183.367-.205.349-.247.331-.291.302-.298.217-.118.089.211.013.395-.005.392-.009.354-.014.319-.017.299-.017.292-.019.273-.024.238-.029.199-.034.167-.043.17-.055.204-.069.219-.083.211-.097.199-.109.186-.117.181-.12.178-.126.172-.139.16-.154.147-.166.136-.173.129-.176.126-.185.119-.202.104-.221.088-.237.074-.246.065-.249.063-.258.054-.275.04-.294.024-.309.01-.313.001-.303-.001-.289-.01-.274-.024-.259-.04-.244-.054-.236-.063-.234-.065-.225-.073-.212-.088-.195-.104-.179-.117-.161-.117-.14-.106-.123-.104-.109-.116-.097-.13-.086-.142-.079-.15-.079-.156-.078-.185zm-.432-9.167-.04-.483-.016-.493-.002-.378v-.343l.002-.347.016-.455.04-.448.068-.417.092-.39.106-.374.11-.369.123-.354.148-.327.176-.296.2-.268.213-.253.217-.248.222-.232.233-.204.244-.172.255-.143.261-.128.263-.123.269-.107.279-.078.291-.047.301-.018.309-.003.31.003.307.018.296.048.285.079.274.109.268.125.267.129.261.146.251.175.239.207.228.235.223.252.22.257.206.272.181.301.152.331.127.36.114.375.109.38.094.396.07.424.041.454.017.484.002.505-.002.515-.016.503-.04.472-.068.437-.092.405-.106.387-.11.382-.123.365-.148.332-.176.298-.2.265-.213.249-.217.242-.223.228-.235.199-.247.169-.26.14-.266.126-.268.12-.274.104-.287.077-.299.046-.311.018-.318.003-.319-.003-.313-.018-.3-.046-.287-.077-.275-.106-.268-.12-.266-.126-.259-.142-.247-.169-.233-.2-.221-.229-.214-.244-.211-.25-.198-.268-.173-.301-.146-.337-.123-.371-.108-.388-.105-.395-.091-.413zm15.741-9.443v16.399h2.782V60.18zm0-6.221v3.19h2.782v-3.19zm9.5 6.221h-2.511v16.399h2.782v-8.958l.035-1.182.081-.648.1-.446.106-.369.109-.353.122-.332.148-.293.173-.251.199-.213.212-.191.215-.186.219-.174.23-.153.239-.129.248-.108.254-.096.255-.092.26-.08.27-.059.28-.035.284-.014.262-.002.216.001.186.006.175.016.17.026.164.036.162.041.16.043.157.048.152.057.146.068.141.078.137.082.137.085.131.087.121.095.111.101.102.108.096.111.095.113.089.116.08.123.07.129.06.136.054.14.054.142.049.151.044.167.037.185.031.201.028.21.026.218.025.259.021.364.008.644v9.977h2.782V66.5l-.004-.725-.009-.403-.012-.279-.013-.232-.013-.223-.015-.211-.017-.189-.021-.165-.025-.146-.029-.151-.038-.177-.044-.191-.053-.188-.06-.181-.068-.175-.071-.172-.072-.17-.077-.167-.083-.161-.091-.154-.098-.148-.102-.145-.104-.143-.11-.14-.122-.134-.135-.127-.147-.12-.154-.117-.155-.116-.163-.112-.174-.107-.187-.099-.199-.092-.205-.09-.207-.088-.209-.082-.214-.072-.219-.061-.224-.051-.226-.045-.227-.043-.229-.038-.234-.028-.238-.017-.257-.006-.339-.001-.471.005-.534.032-.517.084-.484.14-.453.192-.436.219-.438.236-.468.306-.545.493-.75.983zm28.812 12.424.297-.956-2.879-.362-.26.666-.184.373-.155.263-.145.221-.143.212-.148.202-.157.184-.166.164-.174.146-.179.135-.181.133-.185.124-.194.109-.203.092-.212.077-.216.068-.218.066-.222.057-.232.042-.24.025-.252.01-.28.001-.315-.002-.329-.018-.321-.045-.306-.074-.294-.102-.286-.117-.284-.122-.277-.137-.264-.164-.25-.194-.237-.222-.23-.236-.227-.241-.214-.255-.19-.278-.166-.305-.142-.329-.129-.342-.126-.355-.124-.417-.115-.585-.093-1.024h12.221l.006-.187.003-.106.001-.076.002-.063.001-.062.001-.058.001-.054.001-.12v-.227l-.004-.488-.025-.627-.065-.62-.109-.581-.148-.547-.169-.528-.177-.521-.199-.503-.239-.468-.281-.429-.322-.396-.343-.376-.349-.369-.361-.345-.384-.303-.41-.257-.432-.213-.445-.191-.449-.182-.461-.16-.485-.116-.509-.07-.534-.027-.55-.004-.557.004-.549.028-.526.071-.499.119-.475.162-.462.187-.458.194-.444.218-.42.261-.394.31-.37.352-.357.377-.35.384-.329.403-.288.438-.244.477-.203.512-.181.532-.173.538-.152.557-.11.593-.067.631-.026.665-.003.679.003.67.026.645.065.61.11.573.15.539.171.521.179.514.201.496.241.462.285.424.325.391.347.372.353.365.369.342.397.3.428.254.456.211.472.188.477.181.493.157.521.116.552.069.575.027.56.004.509-.003.468-.017.444-.043.422-.072.403-.099.392-.114.388-.118.378-.132.359-.159.337-.188.318-.215.308-.229.304-.234.291-.245.27-.266.245-.29.223-.312.212-.324.21-.335.219-.393zm-2.642-6.58.091.783h-9.138l.086-.818.107-.474.117-.342.119-.294.122-.284.135-.275.156-.258.181-.241.203-.223.215-.215.218-.211.224-.198.236-.174.249-.146.26-.123.267-.109.269-.104.275-.091.287-.067.299-.04.313-.015.327-.003.341.003.341.02.327.05.311.083.296.115.287.13.285.137.277.153.262.184.246.217.227.244.2.237.165.202.138.188.123.205.109.226.095.246.089.256.087.267.088.315zm20.194 6.58.297-.956-2.878-.362-.26.666-.184.373-.156.263-.144.221-.143.212-.148.202-.157.184-.166.164-.174.146-.179.135-.181.133-.185.124-.194.109-.203.092-.212.077-.216.068-.218.066-.223.057-.231.042-.24.025-.253.01-.279.001-.315-.002-.33-.018-.32-.045-.307-.074-.293-.102-.287-.117-.284-.122-.277-.137-.264-.164-.25-.194-.237-.222-.23-.236-.226-.241-.214-.255-.191-.278-.165-.305-.142-.329-.129-.342-.127-.355-.123-.417-.116-.585-.093-1.024h12.222l.005-.187.003-.106.002-.076.001-.063.002-.062.001-.058.001-.054v-.347l-.003-.488-.026-.627-.065-.62-.108-.581-.148-.547-.17-.528-.177-.521-.199-.503-.238-.468-.282-.429-.321-.396-.343-.376-.349-.369-.361-.345-.385-.303-.409-.257-.432-.213-.445-.191-.449-.182-.462-.16-.484-.116-.51-.07-.533-.027-.55-.004-.558.004-.549.028-.525.071-.5.119-.475.162-.462.187-.457.194-.444.218-.421.261-.394.31-.369.352-.357.377-.351.384-.328.403-.288.438-.244.477-.203.512-.181.532-.174.538-.151.557-.111.593-.066.631-.026.665-.004.679.004.67.025.645.066.61.11.573.149.539.172.521.179.514.201.496.241.462.285.424.325.391.347.372.353.365.368.342.397.3.428.254.457.211.472.188.477.181.493.157.521.116.552.069.575.027.56.004.509-.003.468-.017.443-.043.422-.072.403-.099.392-.114.389-.118.378-.132.359-.159.337-.188.318-.215.307-.229.304-.234.292-.245.269-.266.246-.29.223-.312.211-.324.211-.335.219-.393zm-2.641-6.58.091.783h-9.138l.085-.818.108-.474.116-.342.12-.294.122-.284.134-.275.157-.258.18-.241.203-.223.215-.215.218-.211.225-.198.236-.174.249-.146.26-.123.267-.109.268-.104.276-.091.286-.067.3-.04.312-.015.328-.003.34.003.341.02.327.05.311.083.296.115.288.13.285.137.277.153.262.184.245.217.227.244.2.237.165.202.139.188.123.205.108.226.096.246.088.256.088.267.087.315zm8.912-5.844h-2.51v16.399h2.782v-8.58l.012-.683.029-.416.036-.314.038-.277.039-.269.044-.267.053-.261.063-.256.07-.247.069-.222.059-.186.058-.161.064-.149.073-.14.08-.131.085-.128.087-.126.091-.121.098-.114.108-.104.115-.097.119-.092.121-.09.122-.085.126-.074.13-.063.133-.052.135-.047.136-.044.138-.039.141-.029.145-.017.15-.007.156-.001.163.002.168.007.169.018.169.031.169.041.168.048.173.051.193.067.25.108.397.214.965-2.57-.566-.325-.353-.163-.272-.101-.242-.078-.237-.072-.237-.064-.235-.046-.235-.028-.23-.011-.212-.001-.183.001-.162.007-.156.017-.153.029-.15.039-.148.046-.148.047-.146.053-.143.064-.14.075-.136.086-.135.092-.135.095-.136.107-.139.129-.142.155-.145.177-.146.19-.15.199-.171.241-.226.355-.37.653zm8.053 0v16.399h2.782V60.18zm0-6.221v3.19h2.782v-3.19zm9.5 6.221h-2.511v16.399h2.782v-8.958l.035-1.182.081-.648.099-.446.106-.369.11-.353.122-.332.147-.293.174-.251.199-.213.211-.191.215-.186.22-.174.229-.153.24-.129.248-.108.254-.096.255-.092.26-.08.27-.059.279-.035.285-.014.261-.002.217.001.185.006.176.016.17.026.164.036.161.041.161.043.157.048.152.057.146.068.141.078.137.082.137.085.131.087.121.095.111.101.102.108.096.111.095.113.089.116.08.123.069.129.06.136.055.14.053.142.05.151.044.167.037.185.031.201.027.21.027.218.025.259.02.364.009.644v9.977h2.782V66.5l-.004-.725-.01-.403-.011-.279-.013-.232-.013-.223-.015-.211-.017-.189-.021-.165-.025-.146-.03-.151-.037-.177-.045-.191-.052-.188-.061-.181-.067-.175-.071-.172-.073-.17-.076-.167-.083-.161-.091-.154-.098-.148-.102-.145-.104-.143-.11-.14-.122-.134-.135-.127-.147-.12-.154-.117-.156-.116-.162-.112-.174-.107-.187-.099-.199-.092-.205-.09-.207-.088-.21-.082-.214-.072-.218-.061-.224-.051-.226-.045-.227-.043-.229-.038-.234-.028-.239-.017-.256-.006-.34-.001-.47.005-.534.032-.517.084-.484.14-.453.192-.436.219-.439.236-.467.306-.546.493-.749.983zm17.308 18.61-.083-.47-2.691-.407.025 1.006.103.57.133.403.143.342.148.329.168.315.203.289.242.262.278.236.297.222.303.217.314.204.335.179.359.151.381.126.392.112.396.108.408.094.429.069.453.041.471.016.463.002.432-.001.405-.012.387-.029.37-.048.355-.066.348-.075.344-.079.337-.088.322-.106.305-.126.291-.143.282-.152.28-.156.27-.162.253-.175.233-.189.217-.202.207-.209.204-.212.194-.218.177-.231.158-.245.141-.258.131-.265.128-.27.121-.293.105-.336.089-.382.074-.424.067-.448.064-.467.06-.559.049-.801.021-1.441V60.18h-2.556v1.99l-.765-.859-.529-.431-.438-.268-.404-.206-.4-.192-.411-.167-.43-.123-.451-.073-.466-.029-.446-.004-.397.002-.361.013-.345.034-.333.056-.322.077-.317.088-.314.092-.309.103-.298.124-.286.146-.275.167-.27.178-.267.182-.259.191-.245.208-.229.227-.214.245-.207.253-.203.257-.196.266-.181.284-.165.302-.151.32-.143.329-.14.331-.131.335-.115.342-.097.349-.081.356-.072.361-.069.361-.06.365-.045.372-.026.38-.01.394-.002.442.003.515.023.549.058.538.096.518.131.5.151.489.158.485.176.476.212.457.25.437.286.418.305.408.311.402.327.377.356.33.387.28.417.233.433.207.438.199.454.174.483.127.514.076.54.03.527.004.483-.004.446-.026.424-.067.405-.112.389-.153.379-.175.376-.183.367-.205.349-.247.331-.291.302-.298.217-.118.089.211.013.395-.005.392-.009.354-.014.319-.016.299-.018.292-.019.273-.024.238-.029.199-.034.167-.043.17-.055.204-.069.219-.083.211-.097.199-.109.186-.117.181-.12.178-.126.172-.139.16-.154.147-.166.136-.173.129-.176.126-.185.119-.202.104-.221.088-.237.074-.246.065-.249.063-.258.054-.275.04-.294.024-.309.01-.312.001-.304-.001-.289-.01-.274-.024-.259-.04-.244-.054-.236-.063-.234-.065-.225-.073-.211-.088-.196-.104-.179-.117-.161-.117-.14-.106-.123-.104-.109-.116-.097-.13-.086-.142-.079-.15-.079-.156-.078-.185zm-.432-9.167-.04-.483-.016-.493-.002-.378v-.343l.002-.347.016-.455.04-.448.068-.417.092-.39.106-.374.11-.369.123-.354.148-.327.176-.296.2-.268.213-.253.217-.248.222-.232.233-.204.244-.172.256-.143.26-.128.263-.123.269-.107.279-.078.291-.047.301-.018.309-.003.31.003.307.018.296.048.285.079.274.109.268.125.267.129.261.146.251.175.239.207.229.235.223.252.219.257.206.272.181.301.152.331.127.36.114.375.109.38.094.396.07.424.041.454.017.484.002.505-.002.515-.016.503-.04.472-.068.437-.092.405-.106.387-.11.382-.123.365-.148.332-.176.298-.2.265-.213.249-.217.242-.223.228-.235.199-.247.169-.26.14-.266.126-.268.12-.274.104-.287.077-.299.046-.311.018-.318.003-.319-.003-.312-.018-.301-.046-.287-.077-.275-.106-.268-.12-.266-.126-.259-.142-.247-.169-.233-.2-.221-.229-.214-.244-.211-.25-.198-.268-.173-.301-.146-.337-.123-.371-.108-.388-.105-.395-.091-.413zM98.512 22.48h-2.51v16.4h2.782V30.3l.012-.683.029-.416.036-.314.038-.277.039-.27.045-.266.052-.261.063-.256.07-.247.069-.222.059-.186.058-.16.064-.15.073-.14.08-.131.086-.128.086-.126.091-.121.098-.114.108-.104.115-.097.119-.092.121-.09.122-.085.126-.074.13-.063.133-.052.136-.047.135-.044.138-.04.141-.028.145-.017.15-.007h.319l.168.008.169.018.169.03.169.042.168.048.173.052.193.066.25.108.397.214.965-2.57-.566-.325-.353-.163-.272-.1-.242-.079-.237-.072-.236-.064-.236-.046-.235-.028-.23-.01-.212-.002h-.182l-.163.008-.156.017-.153.029-.15.04-.148.045-.148.047-.146.053-.143.064-.14.075-.136.086-.135.092-.135.095-.136.107-.139.13-.142.154-.145.177-.146.19-.15.199-.171.241-.226.355-.37.653zm17.965 14.996.787-1.017v2.42h2.488V22.482h-2.782v8.778l-.012.797-.029.454-.035.324-.038.275-.038.265-.044.254-.052.236-.061.215-.071.196-.074.186-.077.183-.084.178-.095.17-.109.159-.121.15-.128.147-.13.144-.137.14-.149.13-.162.122-.175.112-.181.108-.182.105-.184.1-.187.086-.19.073-.194.062-.194.054-.196.052-.196.046-.2.033-.203.02-.206.008-.208.001-.207-.001-.203-.008-.195-.02-.187-.032-.18-.044-.175-.051-.174-.053-.169-.06-.162-.072-.154-.084-.146-.097-.142-.103-.14-.105-.134-.11-.123-.118-.11-.129-.1-.138-.093-.142-.091-.144-.086-.15-.074-.158-.062-.167-.05-.175-.04-.165-.032-.145-.027-.146-.023-.17-.02-.2-.016-.227-.014-.242-.014-.253-.013-.305-.011-.447-.004-.815V22.48h-2.783v10.155l.005.67.011.378.013.265.014.223.014.214.016.205.02.186.023.166.027.15.031.158.038.183.045.196.053.192.06.183.067.176.07.173.072.17.076.168.082.16.091.152.097.145.1.14.103.14.109.137.122.131.135.125.148.12.154.117.157.116.163.113.176.108.189.101.201.096.208.093.21.092.212.086.215.075.219.064.224.053.225.047.225.045.228.04.232.029.235.017.252.007h.33l.456-.004.518-.034.504-.087.476-.145.449-.198.436-.227.438-.244.471-.316zm20.818-3.176.213-1.075-2.737-.362-.136.79-.123.445-.117.315-.116.265-.117.256-.125.244-.141.224-.157.201-.172.18-.181.17-.183.166-.188.155-.199.136-.211.115-.22.096-.226.085-.228.082-.233.072-.244.052-.255.031-.268.013-.291.001-.317-.002-.327-.019-.314-.046-.299-.078-.283-.107-.276-.122-.273-.127-.265-.143-.251-.171-.234-.203-.22-.23-.211-.248-.208-.252-.195-.271-.171-.306-.145-.343-.12-.378-.108-.397-.103-.403-.089-.421-.066-.456-.04-.494-.015-.528-.002-.545.002-.541.016-.522.041-.487.068-.451.093-.418.107-.4.111-.393.125-.375.15-.342.178-.305.202-.272.216-.254.219-.248.228-.232.242-.204.259-.172.274-.144.283-.128.285-.122.293-.107.308-.079.324-.047.335-.018.313-.002h.264l.231.011.219.026.209.044.202.06.198.067.196.071.192.08.184.096.176.113.168.129.163.138.162.14.156.15.145.164.132.182.12.198.115.206.114.214.12.252.132.356.167.628 2.692-.408-.22-.947-.195-.542-.185-.389-.182-.33-.183-.318-.195-.307-.219-.285-.244-.262-.268-.24-.28-.227-.284-.224-.294-.209-.312-.183-.333-.156-.351-.13-.362-.114-.365-.11-.374-.097-.394-.07-.413-.043-.429-.017-.415-.002-.378.002-.351.012-.342.03-.335.053-.329.07-.326.082-.325.084-.321.095-.316.114-.308.135-.303.154-.3.164-.297.167-.288.178-.27.197-.251.218-.234.237-.224.247-.221.25-.211.26-.194.28-.175.301-.158.32-.148.33-.144.333-.136.34-.119.352-.1.366-.084.379-.075.386-.071.388-.063.395-.045.407-.028.422-.011.444-.001.512.003.61.025.65.064.625.106.585.146.548.166.528.174.522.195.502.234.466.276.426.315.389.337.37.343.362.356.34.381.298.409.251.434.21.448.187.452.18.466.156.491.115.519.068.539.027.524.004.479-.003.441-.02.42-.05.403-.082.387-.114.379-.13.375-.136.366-.153.351-.183.333-.216.317-.247.308-.263.305-.268.29-.281.263-.305.234-.33.208-.353.193-.366.191-.38.193-.444zm8.604 4.649.453-.09-.407-2.452-.285.036-.166.018-.12.01-.104.01-.099.007-.097.007-.092.005-.085.004h-.259l-.097-.002-.092-.006-.087-.01-.082-.015-.079-.016-.077-.017-.075-.02-.069-.023-.064-.027-.058-.031-.055-.033-.054-.034-.053-.035-.048-.038-.046-.04-.041-.044-.04-.045-.039-.045-.037-.047-.034-.05-.03-.052-.026-.055-.025-.056-.023-.059-.023-.067-.019-.083-.017-.101-.014-.117-.012-.126-.012-.133-.011-.161-.01-.24-.003-.444V24.63h2.759v-2.15h-2.759v-5.72l-2.783 1.666v4.055h-2.058v2.149h2.058v9.45l.009.936.022.509.026.345.028.284.029.27.032.254.039.22.046.184.053.151.055.133.058.13.062.126.072.121.082.115.092.108.097.106.098.104.104.102.113.095.123.09.133.083.138.08.14.08.147.074.159.065.174.055.187.045.194.041.197.04.203.034.217.024.23.015.24.006.222.001h.183l.161-.003.162-.008.167-.013.171-.018.175-.02.179-.022.204-.028zm12.695-1.473.787-1.017v2.42h2.488V22.482h-2.782v8.778l-.012.797-.029.454-.035.324-.038.275-.038.265-.044.254-.052.236-.061.215-.07.196-.075.186-.077.183-.083.178-.096.17-.109.159-.121.15-.128.147-.13.144-.137.14-.149.13-.162.122-.174.112-.182.108-.182.105-.184.1-.187.086-.19.073-.193.062-.195.054-.195.052-.197.046-.2.033-.203.02-.206.008-.208.001-.207-.001-.203-.008-.195-.02-.187-.032-.179-.044-.176-.051-.173-.053-.17-.06-.162-.072-.154-.084-.146-.097-.141-.103-.141-.105-.134-.11-.122-.118-.111-.129-.099-.138-.094-.142-.091-.144-.086-.15-.074-.158-.062-.167-.05-.175-.04-.165-.032-.145-.027-.146-.023-.17-.019-.2-.017-.227-.014-.242-.014-.253-.013-.305-.011-.447-.004-.815V22.48h-2.782v10.155l.004.67.011.378.013.265.014.223.014.214.017.205.019.186.023.166.027.15.031.158.038.183.045.196.053.192.06.183.067.176.07.173.072.17.076.168.083.16.09.152.097.145.101.14.102.14.11.137.121.131.135.125.148.12.154.117.157.116.163.113.176.108.189.101.201.096.209.093.209.092.212.086.215.075.22.064.223.053.225.047.226.045.227.04.232.029.235.017.252.007h.331l.455-.004.518-.034.504-.087.476-.145.45-.198.435-.227.438-.244.471-.316zM168.7 22.48h-2.511v16.4h2.783V30.3l.012-.683.029-.416.036-.314.038-.277.039-.27.044-.266.053-.261.063-.256.07-.247.069-.222.059-.186.058-.16.064-.15.073-.14.08-.131.085-.128.087-.126.091-.121.098-.114.108-.104.115-.097.119-.092.121-.09.122-.085.126-.074.13-.063.133-.052.135-.047.136-.044.138-.04.141-.028.145-.017.15-.007h.319l.168.008.169.018.169.03.169.042.168.048.173.052.193.066.25.108.397.214.965-2.57-.566-.325-.353-.163-.272-.1-.242-.079-.237-.072-.237-.064-.235-.046-.235-.028-.23-.01-.213-.002h-.182l-.162.008-.156.017-.153.029-.15.04-.149.045-.147.047-.146.053-.143.064-.14.075-.136.086-.135.092-.135.095-.136.107-.139.13-.142.154-.145.177-.146.19-.151.199-.17.241-.226.355-.37.653zm17.727 15.15.375-.273.604-.49.058.444.051.266.048.197.048.172.049.17.059.188.089.23.164.346h2.895l-.197-.372-.108-.238-.073-.187-.061-.167-.058-.165-.055-.165-.047-.167-.041-.169-.034-.17-.03-.171-.029-.176-.028-.206-.024-.26-.02-.32-.017-.374-.016-.403-.014-.424-.014-.52-.011-.774-.005-1.443v-3.702l-.004-.696-.009-.384-.01-.265-.012-.22-.012-.212-.013-.2-.016-.178-.019-.154-.022-.135-.028-.141-.036-.169-.045-.182-.053-.178-.06-.17-.068-.163-.071-.158-.073-.157-.076-.152-.084-.146-.091-.137-.098-.13-.103-.125-.104-.124-.111-.122-.125-.117-.139-.111-.152-.107-.159-.104-.162-.103-.169-.1-.183-.096-.197-.09-.21-.085-.217-.083-.22-.082-.228-.076-.243-.067-.26-.056-.274-.048-.283-.042-.286-.04-.293-.035-.309-.026-.325-.015-.34-.006-.349-.001h-.351l-.346.008-.336.018-.326.03-.316.041-.311.047-.309.05-.303.055-.294.066-.284.079-.273.089-.268.095-.266.098-.259.102-.243.112-.228.122-.214.131-.206.137-.203.138-.195.144-.181.153-.165.163-.15.173-.143.178-.141.18-.135.186-.127.2-.116.214-.108.226-.102.234-.103.24-.107.282-.122.387-.158.666 2.714.362.189-.652.141-.36.122-.25.116-.209.116-.2.121-.188.13-.169.14-.146.15-.127.154-.115.157-.113.168-.105.187-.093.209-.078.228-.065.239-.058.243-.056.253-.049.273-.035.294-.021.314-.009h.672l.336.012.317.03.295.048.276.067.265.077.261.08.251.09.231.107.209.127.188.144.165.142.143.13.123.129.107.147.09.167.075.187.067.197.064.2.056.212.041.23.024.25.01.26.001.206v.101l-.001.08-.001.103-.002.06-.001.06-.002.066-.001.073-.002.082-.014.09-.079.093-.191.093-.275.09-.32.089-.357.084-.39.082-.409.08-.415.08-.434.077-.467.075-.505.071-.526.068-.474.057-.356.043-.276.035-.249.034-.232.034-.215.035-.207.035-.204.034-.195.035-.18.035-.162.036-.148.036-.152.04-.17.048-.18.055-.178.06-.173.067-.169.072-.167.075-.166.077-.163.08-.159.084-.155.091-.15.097-.148.1-.147.1-.144.106-.137.112-.13.121-.123.129-.12.132-.119.134-.115.137-.109.146-.102.153-.095.161-.092.165-.09.167-.085.168-.074.172-.062.177-.053.18-.046.183-.045.184-.039.186-.028.19-.017.193-.007.204-.001.242.003.3.017.326.045.32.076.303.103.29.118.282.123.28.139.271.166.258.196.243.223.229.239.221.244.217.256.204.281.179.306.151.33.126.344.112.347.108.361.094.384.068.41.041.427.016.396.003.323-.001.277-.007.266-.016.261-.028.258-.039.255-.043.254-.046.253-.051.248-.062.244-.072.24-.083.238-.089.238-.09.239-.099.241-.113.244-.13.247-.144.247-.151.254-.159zm.739-6.032-.001.067-.001.297-.006.303-.014.279-.023.26-.032.242-.036.233-.038.23-.043.221-.051.204-.06.185-.07.17-.08.171-.092.19-.105.194-.118.188-.132.176-.145.166-.151.161-.154.16-.161.154-.173.144-.187.133-.2.123-.207.118-.208.116-.212.109-.219.095-.227.08-.233.068-.236.06-.238.057-.242.05-.248.037-.256.022-.263.008-.267.001-.267-.001-.26-.009-.245-.023-.229-.039-.214-.053-.206-.06-.204-.063-.195-.07-.18-.086-.164-.1-.15-.115-.141-.122-.138-.124-.13-.128-.113-.135-.097-.143-.08-.15-.071-.154-.069-.155-.059-.159-.044-.166-.026-.173-.01-.179-.002-.165.001-.14.005-.122.012-.117.02-.114.027-.112.032-.11.032-.11.037-.108.044-.106.053-.103.059-.1.064-.1.065-.099.068-.095.074-.09.081-.085.088-.079.09-.075.092-.075.095-.072.102-.066.108-.06.114-.056.118-.052.12-.051.13-.05.15-.05.17-.049.19-.047.2-.046.204-.046.213-.046.234-.044.254-.043.282-.044.347-.05.438-.063.476-.073.457-.078.425-.082.396-.085.381-.087.375-.088.359-.09.331-.093.299-.097.26-.075.179.076.068.322z"/>
  </g>
</svg>
